<?xml version="1.0" standalone="no"?>
<!DOCTYPE svg PUBLIC "-//W3C//DTD SVG 20010904//EN"
 "http://www.w3.org/TR/2001/REC-SVG-20010904/DTD/svg10.dtd">
<svg version="1.0" xmlns="http://www.w3.org/2000/svg"
 width="300.000000pt" height="112.000000pt" viewBox="0 0 300.000000 112.000000"
 preserveAspectRatio="xMidYMid meet">

<g transform="translate(0.000000,112.000000) scale(0.100000,-0.100000)"
fill="#000000" stroke="none">
<path d="M1195 1086 c-104 -50 -150 -121 -150 -236 0 -88 21 -136 83 -192 55
-49 118 -71 189 -66 103 8 175 58 221 157 21 45 24 63 20 116 -15 187 -200
299 -363 221z"/>
<path d="M200 563 c-108 -27 -181 -104 -195 -203 -17 -122 70 -204 215 -203
117 0 228 73 260 167 18 55 9 136 -20 176 -45 63 -156 90 -260 63z m88 -155
c32 -32 0 -98 -48 -98 -35 0 -54 23 -46 54 12 49 65 73 94 44z"/>
<path d="M523 367 l51 -204 79 1 80 1 37 89 c40 95 49 95 50 -4 1 -86 2 -88
88 -89 l77 0 95 169 c52 93 95 168 96 167 1 -1 -11 -78 -25 -170 l-28 -168 98
2 99 1 5 32 c18 103 55 347 55 360 0 14 -24 16 -178 15 -98 0 -183 -4 -189 -7
-5 -4 -27 -56 -49 -116 l-39 -109 -9 117 -8 116 -63 0 -63 0 -40 -102 c-22
-57 -42 -110 -44 -118 -3 -8 -8 38 -12 103 l-8 117 -103 0 -102 0 50 -203z"/>
<path d="M1405 536 c-3 -17 -21 -130 -40 -251 -19 -121 -37 -235 -40 -253 l-6
-32 99 0 99 0 11 78 c7 42 12 92 12 110 l0 33 23 -27 c20 -23 34 -28 83 -31
73 -5 108 14 157 87 32 48 35 50 41 27 18 -74 94 -116 207 -117 64 0 85 4 136
30 37 19 70 44 87 67 l26 38 -91 3 c-82 2 -94 1 -111 -18 -22 -23 -23 -23 -49
-10 -11 6 -19 21 -19 35 l0 25 140 0 140 0 6 26 c18 69 -30 163 -99 195 -62
28 -167 26 -232 -5 -49 -22 -114 -84 -116 -109 0 -7 -9 12 -20 40 -29 74 -63
97 -140 91 -51 -4 -64 -9 -94 -38 -19 -19 -35 -32 -35 -29 0 2 4 19 9 37 l10
33 -94 -2 -95 -2 -5 -31z m725 -100 c0 -17 -26 -24 -62 -16 -22 4 -25 8 -15
21 7 9 19 18 27 21 20 7 50 -9 50 -26z m-486 -22 c21 -8 21 -62 -1 -86 -35
-38 -93 -7 -78 42 13 41 43 58 79 44z"/>
<path d="M2310 566 c0 -3 26 -47 59 -98 l58 -93 -93 -101 c-52 -56 -94 -104
-94 -108 0 -3 49 -6 110 -6 l109 0 32 47 c32 46 33 46 40 22 18 -68 20 -69
139 -69 61 0 110 2 110 5 0 3 -27 48 -60 101 -33 52 -60 101 -60 107 0 7 38
50 85 97 47 47 85 88 85 92 0 5 -48 8 -108 8 l-107 0 -25 -40 c-14 -22 -27
-40 -31 -40 -3 0 -11 18 -18 40 l-12 40 -109 0 c-61 0 -110 -2 -110 -4z"/>
<path d="M2896 538 c-21 -30 -20 -44 4 -68 24 -24 53 -26 74 -4 19 18 21 65 4
82 -20 20 -65 14 -82 -10z m72 0 c17 -17 15 -53 -3 -68 -8 -7 -25 -10 -40 -6
-20 5 -25 12 -25 40 0 18 3 36 7 39 11 11 48 8 61 -5z"/>
<path d="M2921 503 c1 -21 3 -30 6 -20 5 20 19 23 26 5 3 -7 4 0 3 17 -1 19
-7 31 -19 33 -14 3 -17 -4 -16 -35z m29 17 c0 -5 -4 -10 -10 -10 -5 0 -10 5
-10 10 0 6 5 10 10 10 6 0 10 -4 10 -10z"/>
</g>
</svg>
