<?xml version="1.0" standalone="no"?>
<!DOCTYPE svg PUBLIC "-//W3C//DTD SVG 20010904//EN"
 "http://www.w3.org/TR/2001/REC-SVG-20010904/DTD/svg10.dtd">
<svg version="1.0" xmlns="http://www.w3.org/2000/svg"
 width="300.000000pt" height="109.000000pt" viewBox="0 0 300.000000 109.000000"
 preserveAspectRatio="xMidYMid meet">

<g transform="translate(0.000000,109.000000) scale(0.100000,-0.100000)"
fill="#000000" stroke="none">
<path d="M0 955 l0 -135 47 0 47 0 -47 -48 -47 -48 0 -362 c0 -199 3 -362 8
-362 4 0 89 86 190 190 l184 190 251 0 252 0 149 138 149 137 -257 5 -257 5
206 213 207 212 -265 0 -265 0 -208 -215 -209 -215 -60 0 -59 0 65 68 c35 37
127 131 204 210 77 79 142 145 144 148 2 2 -93 4 -212 4 l-217 0 0 -135z"/>
<path d="M1935 940 c-48 -11 -82 -38 -105 -84 -25 -52 -25 -79 0 -133 33 -75
117 -108 195 -78 75 28 113 101 95 179 -8 39 -60 102 -89 110 -42 11 -69 13
-96 6z"/>
<path d="M1261 603 c-38 -19 -68 -62 -77 -111 -25 -134 203 -170 274 -43 32
57 29 96 -12 137 -31 31 -39 34 -92 34 -34 0 -73 -7 -93 -17z m97 -99 c4 -25
-22 -49 -43 -40 -31 12 -9 70 25 64 8 -2 16 -13 18 -24z"/>
<path d="M1470 613 c1 -5 13 -60 29 -123 l27 -115 49 0 48 -1 22 50 c23 53 35
47 35 -18 0 -32 1 -32 48 -33 l48 -2 53 95 c29 52 55 93 58 91 4 -4 -10 -104
-23 -165 -4 -22 -2 -23 56 -21 33 1 60 3 60 3 0 1 9 53 20 116 11 63 20 118
20 123 0 4 -51 7 -114 7 l-114 0 -25 -67 -25 -68 -7 68 -7 67 -38 0 c-37 0
-38 -1 -63 -67 -24 -64 -26 -66 -26 -32 -1 20 -4 51 -7 68 -6 30 -7 31 -65 31
-33 0 -59 -3 -59 -7z"/>
<path d="M2008 453 c-15 -92 -24 -171 -22 -175 8 -12 102 -10 109 2 4 6 9 35
12 64 l6 53 26 -13 c14 -8 35 -14 46 -14 30 0 84 37 97 66 l13 27 5 -24 c13
-55 113 -86 187 -58 29 11 83 57 83 71 0 12 -108 10 -115 -2 -10 -16 -45 -12
-45 5 0 15 4 16 113 17 53 0 58 2 64 26 8 33 -22 89 -58 108 -36 18 -112 18
-149 -1 -15 -8 -38 -27 -49 -41 l-21 -27 -11 32 c-19 55 -84 69 -134 29 l-28
-22 5 22 c6 21 3 22 -51 22 l-57 0 -26 -167z m460 89 c2 -7 -7 -12 -23 -12
-24 0 -26 2 -15 15 14 17 31 16 38 -3z m-282 -26 c8 -21 -15 -58 -34 -54 -9 2
-18 11 -20 21 -7 36 42 65 54 33z"/>
<path d="M2592 598 c8 -13 25 -40 37 -61 l24 -39 -63 -63 -64 -64 73 2 c64 2
74 5 91 27 l19 25 10 -26 c9 -24 14 -26 81 -28 l71 -2 -42 66 -42 67 59 59 58
59 -69 0 c-66 0 -71 -2 -87 -27 l-16 -28 -7 28 c-7 26 -9 27 -77 27 l-70 0 14
-22z"/>
<path d="M2936 603 c-9 -9 -7 -41 3 -47 4 -3 7 7 5 22 -2 15 -1 19 2 10 7 -22
21 -24 21 -3 0 15 -21 27 -31 18z"/>
<path d="M2980 601 c0 -6 4 -13 10 -16 6 -3 7 1 4 9 -7 18 -14 21 -14 7z"/>
</g>
</svg>
